{"title":"The Outlaw Josey Wales - 1976 DVDrip nutEdave.avi","uid":4864701,"size":1342708224,"categoryP":"video","categoryS":"movies","magnet":"?xt=urn:btih:f0e86e08eb4e30492c3e0315c9118b1e11b42458&amp;dn=The+Outlaw+Josey+Wales+-+1976+DVDrip+nutEdave.avi&amp;tr=udp%3A%2F%2Ftracker.openbittorrent.com%3A80&amp;tr=udp%3A%2F%2Fopen.demonii.com%3A1337&amp;tr=udp%3A%2F%2Ftracker.coppersurfer.tk%3A6969&amp;tr=udp%3A%2F%2Fexodus.desync.com%3A6969","seeders":1,"leechers":0,"uploader":"nutEdave","files":-1,"time":1240435066,"description":"`                                                       \n                                 #  ###   #             \n                        ##  # # ### #   ###  ## # # ### \n                        # # # #  #  ##  # # # # # # ##  \n                        # # ###  ## #   ### ###  #  ### \n                                    ###     `                                                                                  The Outlaw Josey Wales is a 1976 revisionist Western film set at the end of the American Civil War directed by and starring Clint Eastwood (as the eponymous Josey Wales), with Chief Dan George, Sondra Locke, Bill McKinney, John Vernon, Paula Trueman, Sam Bottoms, Geraldine Keams, John Russell, Woodrow Parfrey, Joyce Jameson, Sheb Wooley, John Quade, Will Sampson, and Royal Dano.\n\nThe movie was adapted by Sonia Chernus and Philip Kaufman from the novel The Rebel Outlaw: Josey Wales (republished in 1975 under the title Gone to Texas) by Forrest Carter.\nScreen Shots `                                                                                 &lt;a href=&quot; http://i728.photobucket.com/albums/ww286/nutEdave/Outlaw%20J%20W/1.jpg&quot; rel=&quot;nofollow&quot; target=&quot;_NEW&quot;&gt; http://i728.photobucket.com/albums/ww286/nutEdave/Outlaw%20J%20W/1.jpg&lt;/a&gt; `                                                                                 &lt;a href=&quot; http://i728.photobucket.com/albums/ww286/nutEdave/Outlaw%20J%20W/2.jpg&quot; rel=&quot;nofollow&quot; target=&quot;_NEW&quot;&gt; http://i728.photobucket.com/albums/ww286/nutEdave/Outlaw%20J%20W/2.jpg&lt;/a&gt; `                                                                                 &lt;a href=&quot; http://i728.photobucket.com/albums/ww286/nutEdave/Outlaw%20J%20W/3.jpg&quot; rel=&quot;nofollow&quot; target=&quot;_NEW&quot;&gt; http://i728.photobucket.com/albums/ww286/nutEdave/Outlaw%20J%20W/3.jpg&lt;/a&gt; `                                                                                 &lt;a href=&quot; http://i728.photobucket.com/albums/ww286/nutEdave/Outlaw%20J%20W/4.jpg&quot; rel=&quot;nofollow&quot; target=&quot;_NEW&quot;&gt; http://i728.photobucket.com/albums/ww286/nutEdave/Outlaw%20J%20W/4.jpg&lt;/a&gt; `                                                                                 &lt;a href=&quot; http://i728.photobucket.com/albums/ww286/nutEdave/Outlaw%20J%20W/5.jpg&quot; rel=&quot;nofollow&quot; target=&quot;_NEW&quot;&gt; http://i728.photobucket.com/albums/ww286/nutEdave/Outlaw%20J%20W/5.jpg&lt;/a&gt; `                                                                     \nCast                                                                               Actor                              Role                                          Clint Eastwood ................... Josey Wales \nChief Dan George ................. Lone Watie \nSondra Locke ..................... Laura Lee \nBill McKinney .................... Terrill \nJohn Vernon ...................... Fletcher \nPaula Trueman .................... Grandma Sarah \nSam Bottoms ...................... Jamie \nGeraldine Keams .................. Little Moonlight \nWoodrow Parfrey .................. Carpetbagger \nJoyce Jameson .................... Rose \nSheb Wooley ...................... Travis Cobb \nRoyal Dano ....................... Ten Spot \nMatt Clark ....................... Kelly \nJohn Verros ...................... Chato \nWill Sampson ..................... Ten Bears \nKyle Eastwood .................... Josey's son `                                                                                   General\nComplete name                    : The Outlaw Josey Wales - 1976 \nFormat                           : AVI\nFormat/Info                      : Audio Video Interleave\nFile size                        : 1.25 GiB\nDuration                         : 2h 10mn\nOverall bit rate                 : 1 374 Kbps\n\nVideo\nFormat                           : MPEG-4 Visual\nFormat profile                   : Streaming Video@L1\nFormat settings, BVOP            : Yes\nFormat settings, QPel            : No\nFormat settings, GMC             : No warppoints\nFormat settings, Matrix          : Default\nMuxing mode                      : Packed bitstream\nCodec ID                         : XVID\nCodec ID/Hint                    : XviD\nDuration                         : 2h 10mn\nBit rate                         : 1 172 Kbps\nWidth                            : 1 024 pixels\nHeight                           : 592 pixels\nDisplay aspect ratio             : 16/9\nFrame rate                       : 25.000 fps\nResolution                       : 24 bits\nColorimetry                      : 4:2:0\nScan type                        : Progressive\nBits/(Pixel*Frame)               : 0.077\nStream size                      : 1.07 GiB (85%)\nWriting library                  : XviD 1.1.0 (UTC 2005-11-22)\n\nAudio\nFormat                           : MPEG Audio\nFormat version                   : Version 1\nFormat profile                   : Layer 3\nCodec ID                         : 55\nCodec ID/Hint                    : MP3\nDuration                         : 2h 10mn\nBit rate mode                    : Constant\nBit rate                         : 192 Kbps\nChannel(s)                       : 2 channels\nSampling rate                    : 44.1 KHz\nResolution                       : 16 bits\nVideo delay                      : 26ms\nStream size                      : 179 MiB (14%)\nAlignment                        : Split accross interleaves\nInterleave, duration             : 40 ms (1.00 video frame)\nTitle                            : Audio Stream `                                                                                  More nutEdave torrents  &lt;a href=&quot;\nhttp://thepiratebay.se/user/nutEdave&quot; rel=&quot;nofollow&quot; target=&quot;_NEW&quot;&gt;\nhttp://thepiratebay.se/user/nutEdave&lt;/a&gt;\n\n\nRSS Feed  &lt;a href=&quot;\nhttp://rss.thepiratebay.se/user/94be0146a68e5d6fe94dbb6506d52443&quot; rel=&quot;nofollow&quot; target=&quot;_NEW&quot;&gt;\nhttp://rss.thepiratebay.se/user/94be0146a68e5d6fe94dbb6506d52443&lt;/a&gt;                                                                                                      Please seed after downloading `                                                                                            :::===  :::===== :::===== :::====       :::= === :::====  :::====\n        :::     :::      :::      :::  ===      :::===== :::  === :::====\n         =====  ======   ======   ===  ===      ======== ===  ===   ===  \n            === ===      ===      ===  ===      === ==== ===  ===   ===  \n        ======  ======== ======== =======       ===  ===  ======    ===  \n                                                                         \n                  :::=====  :::====  :::===== :::===== :::==== \n                  :::       :::  === :::      :::      :::  ===\n                  === ===== =======  ======   ======   ===  ===\n                  ===   === === ===  ===      ===      ===  ===\n                   =======  ===  === ======== ======== =======","torrent":{"xt":"urn:btih:f0e86e08eb4e30492c3e0315c9118b1e11b42458","amp;dn":"The+Outlaw+Josey+Wales+-+1976+DVDrip+nutEdave.avi","amp;tr":["udp%3A%2F%2Ftracker.openbittorrent.com%3A80","udp%3A%2F%2Fopen.demonii.com%3A1337","udp%3A%2F%2Ftracker.coppersurfer.tk%3A6969","udp%3A%2F%2Fexodus.desync.com%3A6969"],"infoHash":"f0e86e08eb4e30492c3e0315c9118b1e11b42458","infoHashBuffer":{"type":"Buffer","data":[240,232,110,8,235,78,48,73,44,62,3,21,201,17,139,30,17,180,36,88]},"announce":[],"urlList":[]}}